<?xml version="1.0" standalone="no"?>
<!DOCTYPE svg PUBLIC "-//W3C//DTD SVG 20010904//EN"
 "http://www.w3.org/TR/2001/REC-SVG-20010904/DTD/svg10.dtd">
<svg version="1.0" xmlns="http://www.w3.org/2000/svg"
 width="700.000000pt" height="700.000000pt" viewBox="0 0 700.000000 700.000000"
 preserveAspectRatio="xMidYMid meet">
<metadata>
Created by potrace 1.14, written by Peter Selinger 2001-2017
</metadata>
<g transform="translate(0.000000,700.000000) scale(0.100000,-0.100000)"
fill="#000000" stroke="none">
<path d="M3437 6044 c-1 -1 -54 -5 -117 -8 -63 -4 -122 -8 -130 -11 -8 -2 -42
-7 -75 -11 -33 -3 -69 -8 -80 -10 -11 -2 -35 -5 -52 -8 -25 -3 -110 -21 -153
-31 -3 -1 -21 -5 -40 -9 -142 -30 -388 -123 -536 -201 -196 -102 -348 -216
-505 -375 -181 -184 -317 -391 -432 -660 -47 -108 -118 -347 -142 -475 -18
-96 -45 -281 -50 -350 -4 -44 -8 -100 -11 -125 -4 -51 -4 -464 1 -525 5 -65
16 -178 21 -212 2 -18 6 -50 9 -70 21 -148 64 -334 114 -483 48 -144 63 -179
129 -310 52 -103 237 -390 251 -390 4 0 14 -12 23 -27 35 -58 212 -241 313
-323 266 -216 550 -338 955 -410 265 -47 365 -55 710 -55 244 0 391 6 470 20
14 2 45 6 70 9 25 3 68 10 95 15 28 6 61 13 75 15 62 10 203 51 290 83 385
143 707 406 933 765 116 183 214 414 287 673 31 107 31 107 -25 124 -16 5 -91
27 -165 49 -74 22 -263 79 -420 127 -157 48 -374 114 -484 147 -109 33 -202
56 -206 51 -4 -4 -17 -45 -29 -91 -34 -132 -69 -229 -127 -347 -55 -114 -57
-118 -138 -219 -101 -124 -206 -194 -368 -244 -96 -30 -163 -37 -338 -36 -177
0 -281 21 -406 80 -132 62 -269 185 -334 299 -67 117 -139 348 -155 495 -3 30
-8 62 -10 70 -19 72 -28 652 -13 790 21 180 47 313 84 419 121 349 378 576
719 635 79 13 284 14 355 1 61 -11 199 -55 205 -65 3 -6 13 -10 21 -10 23 0
142 -80 206 -139 109 -100 175 -203 234 -366 25 -70 36 -90 51 -89 25 1 87 12
104 18 8 3 25 7 39 10 14 2 169 37 345 76 176 40 327 73 335 75 90 18 487 108
492 111 9 6 -13 73 -67 204 -131 322 -305 584 -523 791 -266 253 -614 414
-1052 488 -108 18 -144 22 -315 37 -67 6 -433 12 -438 8z"/>
</g>
</svg>
